<svg width="18" height="11" viewBox="0 0 18 11" fill="none" xmlns="http://www.w3.org/2000/svg">
<path d="M17.2959 2.79586L9.7959 10.2959C9.69138 10.4007 9.56719 10.484 9.43044 10.5407C9.2937 10.5975 9.14709 10.6267 8.99902 10.6267C8.85096 10.6267 8.70435 10.5975 8.5676 10.5407C8.43085 10.484 8.30666 10.4007 8.20215 10.2959L0.702147 2.79586C0.490802 2.58451 0.37207 2.29787 0.37207 1.99898C0.37207 1.7001 0.490802 1.41345 0.702147 1.20211C0.913491 0.990763 1.20014 0.872031 1.49902 0.872031C1.79791 0.872031 2.08455 0.990763 2.2959 1.20211L8.99996 7.90617L15.704 1.20117C15.9154 0.989826 16.202 0.871094 16.5009 0.871094C16.7998 0.871094 17.0864 0.989826 17.2978 1.20117C17.5091 1.41252 17.6278 1.69916 17.6278 1.99805C17.6278 2.29693 17.5091 2.58358 17.2978 2.79492L17.2959 2.79586Z" fill="#94A3B8"/>
</svg>
