<svg width="21" height="20" viewBox="0 0 21 20" fill="none" xmlns="http://www.w3.org/2000/svg">
<path d="M18.3125 10C18.3125 10.2486 18.2137 10.4871 18.0379 10.6629C17.8621 10.8387 17.6236 10.9375 17.375 10.9375H11.4375V16.875C11.4375 17.1236 11.3387 17.3621 11.1629 17.5379C10.9871 17.7137 10.7486 17.8125 10.5 17.8125C10.2514 17.8125 10.0129 17.7137 9.83709 17.5379C9.66127 17.3621 9.5625 17.1236 9.5625 16.875V10.9375H3.625C3.37636 10.9375 3.1379 10.8387 2.96209 10.6629C2.78627 10.4871 2.6875 10.2486 2.6875 10C2.6875 9.75136 2.78627 9.5129 2.96209 9.33709C3.1379 9.16127 3.37636 9.0625 3.625 9.0625H9.5625V3.125C9.5625 2.87636 9.66127 2.6379 9.83709 2.46209C10.0129 2.28627 10.2514 2.1875 10.5 2.1875C10.7486 2.1875 10.9871 2.28627 11.1629 2.46209C11.3387 2.6379 11.4375 2.87636 11.4375 3.125V9.0625H17.375C17.6236 9.0625 17.8621 9.16127 18.0379 9.33709C18.2137 9.5129 18.3125 9.75136 18.3125 10Z" fill="white"/>
</svg>
