<svg width="22" height="23" viewBox="0 0 22 23" fill="none" xmlns="http://www.w3.org/2000/svg">
<path d="M21.2966 9.57748L12.5466 0.827482C12.1364 0.417389 11.5801 0.187012 11 0.187012C10.42 0.187012 9.86367 0.417389 9.45345 0.827482L0.703449 9.57748C0.499494 9.78019 0.337815 10.0214 0.227792 10.287C0.117768 10.5527 0.0615882 10.8376 0.0625112 11.1251V21.6251C0.0625112 21.9732 0.200792 22.3071 0.446934 22.5532C0.693075 22.7994 1.02691 22.9376 1.37501 22.9376H20.625C20.9731 22.9376 21.3069 22.7994 21.5531 22.5532C21.7992 22.3071 21.9375 21.9732 21.9375 21.6251V11.1251C21.9384 10.8376 21.8823 10.5527 21.7722 10.287C21.6622 10.0214 21.5005 9.78019 21.2966 9.57748ZM19.3125 20.3126H2.68751V11.3056L11 2.99311L19.3125 11.3056V20.3126Z" fill="#4F46E5"/>
</svg>
